<?xml version="1.0" encoding="UTF-8"?>
<!DOCTYPE svg PUBLIC "-//W3C//DTD SVG 1.1//EN" "http://www.w3.org/Graphics/SVG/1.1/DTD/svg11.dtd">
<svg xmlns="http://www.w3.org/2000/svg" version="1.1" width="1563px" height="1563px" style="shape-rendering:geometricPrecision; text-rendering:geometricPrecision; image-rendering:optimizeQuality; fill-rule:evenodd; clip-rule:evenodd" xmlns:xlink="http://www.w3.org/1999/xlink">
<g><path style="opacity:0.989" fill="#fefefe" d="M 279.5,642.5 C 350.167,642.5 420.833,642.5 491.5,642.5C 491.5,717.833 491.5,793.167 491.5,868.5C 420.833,868.5 350.167,868.5 279.5,868.5C 279.5,793.167 279.5,717.833 279.5,642.5 Z"/></g>
<g><path style="opacity:0.963" fill="#ff8a12" d="M 1091.5,817.5 C 1103.83,817.5 1116.17,817.5 1128.5,817.5C 1128.5,810.5 1128.5,803.5 1128.5,796.5C 1121.31,796.825 1114.31,796.491 1107.5,795.5C 1122.99,779.508 1138.66,763.675 1154.5,748C 1145.96,738.294 1137.62,728.461 1129.5,718.5C 1128.54,711.254 1128.2,703.92 1128.5,696.5C 1122.5,696.5 1116.5,696.5 1110.5,696.5C 1104.1,689.036 1100.44,680.37 1099.5,670.5C 1100.58,659.685 1105.75,651.351 1115,645.5C 1137.33,671.5 1159.67,697.5 1182,723.5C 1207.33,697.5 1232.67,671.5 1258,645.5C 1268.81,654.738 1271.81,666.072 1267,679.5C 1263.74,685.693 1259.74,691.36 1255,696.5C 1238.65,714.017 1222.48,731.683 1206.5,749.5C 1231.31,778.148 1256.31,806.648 1281.5,835C 1270.93,848.75 1257.93,851.75 1242.5,844C 1220.63,820.465 1199.13,796.632 1178,772.5C 1153.5,797.667 1129,822.833 1104.5,848C 1098.64,846.826 1094.47,843.326 1092,837.5C 1091.06,834.185 1090.23,830.852 1089.5,827.5C 1090.26,824.179 1090.93,820.846 1091.5,817.5 Z"/></g>
<g><path style="opacity:0.958" fill="#fefffe" d="M 523.5,696.5 C 547.167,696.5 570.833,696.5 594.5,696.5C 594.5,703.833 594.5,711.167 594.5,718.5C 579.833,718.5 565.167,718.5 550.5,718.5C 550.5,726.833 550.5,735.167 550.5,743.5C 563.833,743.5 577.167,743.5 590.5,743.5C 590.5,750.833 590.5,758.167 590.5,765.5C 577.167,765.5 563.833,765.5 550.5,765.5C 550.5,775.5 550.5,785.5 550.5,795.5C 565.167,795.5 579.833,795.5 594.5,795.5C 594.5,802.833 594.5,810.167 594.5,817.5C 570.833,817.5 547.167,817.5 523.5,817.5C 523.5,777.167 523.5,736.833 523.5,696.5 Z"/></g>
<g><path style="opacity:0.958" fill="#fefffe" d="M 603.5,696.5 C 612.5,696.5 621.5,696.5 630.5,696.5C 639.831,727.492 649.164,758.492 658.5,789.5C 667.433,758.368 676.767,727.368 686.5,696.5C 695.5,696.5 704.5,696.5 713.5,696.5C 700.167,736.833 686.833,777.167 673.5,817.5C 663.5,817.5 653.5,817.5 643.5,817.5C 630.167,777.167 616.833,736.833 603.5,696.5 Z"/></g>
<g><path style="opacity:0.973" fill="#fefffe" d="M 728.5,696.5 C 751.833,696.5 775.167,696.5 798.5,696.5C 798.5,703.833 798.5,711.167 798.5,718.5C 783.833,718.5 769.167,718.5 754.5,718.5C 754.5,726.833 754.5,735.167 754.5,743.5C 768.167,743.5 781.833,743.5 795.5,743.5C 795.5,750.833 795.5,758.167 795.5,765.5C 781.833,765.5 768.167,765.5 754.5,765.5C 754.5,775.5 754.5,785.5 754.5,795.5C 769.167,795.5 783.833,795.5 798.5,795.5C 798.5,802.833 798.5,810.167 798.5,817.5C 775.167,817.5 751.833,817.5 728.5,817.5C 728.5,777.167 728.5,736.833 728.5,696.5 Z"/></g>
<g><path style="opacity:0.956" fill="#fefffe" d="M 822.5,696.5 C 834.081,696.179 845.581,696.512 857,697.5C 874,726.833 891,756.167 908,785.5C 907.532,755.876 907.365,726.209 907.5,696.5C 915.5,696.5 923.5,696.5 931.5,696.5C 931.5,736.833 931.5,777.167 931.5,817.5C 920.162,817.667 908.828,817.5 897.5,817C 880.207,787.582 863.04,758.082 846,728.5C 846.425,758.147 846.591,787.813 846.5,817.5C 838.5,817.5 830.5,817.5 822.5,817.5C 822.5,777.167 822.5,736.833 822.5,696.5 Z"/></g>
<g><path style="opacity:0.957" fill="#fefffe" d="M 948.5,696.5 C 979.5,696.5 1010.5,696.5 1041.5,696.5C 1041.5,703.833 1041.5,711.167 1041.5,718.5C 1030.5,718.5 1019.5,718.5 1008.5,718.5C 1008.5,751.5 1008.5,784.5 1008.5,817.5C 999.5,817.5 990.5,817.5 981.5,817.5C 981.5,784.5 981.5,751.5 981.5,718.5C 970.5,718.5 959.5,718.5 948.5,718.5C 948.5,711.167 948.5,703.833 948.5,696.5 Z"/></g>
<g><path style="opacity:0.963" fill="#fffefe" d="M 1110.5,696.5 C 1116.5,696.5 1122.5,696.5 1128.5,696.5C 1128.2,703.92 1128.54,711.254 1129.5,718.5C 1114.83,718.5 1100.17,718.5 1085.5,718.5C 1085.5,726.833 1085.5,735.167 1085.5,743.5C 1099.17,743.5 1112.83,743.5 1126.5,743.5C 1126.5,750.833 1126.5,758.167 1126.5,765.5C 1112.83,765.5 1099.17,765.5 1085.5,765.5C 1085.5,775.5 1085.5,785.5 1085.5,795.5C 1092.83,795.5 1100.17,795.5 1107.5,795.5C 1114.31,796.491 1121.31,796.825 1128.5,796.5C 1128.5,803.5 1128.5,810.5 1128.5,817.5C 1116.17,817.5 1103.83,817.5 1091.5,817.5C 1080.5,817.5 1069.5,817.5 1058.5,817.5C 1058.5,777.167 1058.5,736.833 1058.5,696.5C 1075.83,696.5 1093.17,696.5 1110.5,696.5 Z"/></g>
<g><path style="opacity:1" fill="#020202" d="M 326.5,800.5 C 326.5,795.167 326.5,789.833 326.5,784.5C 338.167,784.5 349.833,784.5 361.5,784.5C 361.5,777.167 361.5,769.833 361.5,762.5C 350.5,762.5 339.5,762.5 328.5,762.5C 328.5,757.167 328.5,751.833 328.5,746.5C 339.5,746.5 350.5,746.5 361.5,746.5C 361.826,737.983 361.493,729.65 360.5,721.5C 349.346,720.505 338.012,720.172 326.5,720.5C 326.5,715.167 326.5,709.833 326.5,704.5C 346.831,705.015 366.331,704.348 385,702.5C 388.833,702.833 392.667,703.167 396.5,703.5C 402.915,714.666 409.582,725.666 416.5,736.5C 423.418,725.666 430.085,714.666 436.5,703.5C 443.811,702.335 451.144,702.169 458.5,703C 448.5,718.667 438.5,734.333 428.5,750C 438.971,765.97 449.638,781.803 460.5,797.5C 452.833,798.833 445.167,798.833 437.5,797.5C 430.167,785.833 422.833,774.167 415.5,762.5C 407.969,774.201 400.635,786.034 393.5,798C 371.23,800.207 348.897,801.04 326.5,800.5 Z"/></g>
<g><path style="opacity:1" fill="#202020" d="M 382.5,715.5 C 381.167,737.833 381.167,760.167 382.5,782.5C 382.44,783.043 382.107,783.376 381.5,783.5C 380.167,760.5 380.167,737.5 381.5,714.5C 382.107,714.624 382.44,714.957 382.5,715.5 Z"/></g>
<g><path style="opacity:1" fill="#fafafa" d="M 382.5,715.5 C 389.249,726.765 396.249,737.931 403.5,749C 396.249,760.069 389.249,771.235 382.5,782.5C 381.167,760.167 381.167,737.833 382.5,715.5 Z"/></g>
<g><path style="opacity:1" fill="#414141" d="M 326.5,704.5 C 326.5,709.833 326.5,715.167 326.5,720.5C 338.012,720.172 349.346,720.505 360.5,721.5C 348.833,721.5 337.167,721.5 325.5,721.5C 325.178,715.642 325.511,709.975 326.5,704.5 Z"/></g>
<g><path style="opacity:1" fill="#989898" d="M 360.5,721.5 C 361.493,729.65 361.826,737.983 361.5,746.5C 350.5,746.5 339.5,746.5 328.5,746.5C 338.987,745.506 349.654,745.172 360.5,745.5C 360.5,737.5 360.5,729.5 360.5,721.5 Z"/></g>
<g><path style="opacity:1" fill="#868686" d="M 328.5,762.5 C 339.5,762.5 350.5,762.5 361.5,762.5C 361.5,769.833 361.5,777.167 361.5,784.5C 349.833,784.5 338.167,784.5 326.5,784.5C 326.5,789.833 326.5,795.167 326.5,800.5C 325.511,795.025 325.178,789.358 325.5,783.5C 337.167,783.5 348.833,783.5 360.5,783.5C 360.5,776.833 360.5,770.167 360.5,763.5C 349.654,763.828 338.987,763.494 328.5,762.5 Z"/></g>
</svg>
