<svg xmlns="http://www.w3.org/2000/svg" xmlns:xlink="http://www.w3.org/1999/xlink" width="1205" zoomAndPan="magnify" viewBox="0 0 903.75 225.75" height="301" preserveAspectRatio="xMidYMid meet" version="1.0"><path fill="#fefefe" d="M 39.957031 16.574219 C 98.996094 16.574219 158.035156 16.574219 217.074219 16.574219 C 217.074219 79.511719 217.074219 142.449219 217.074219 205.386719 C 158.035156 205.386719 98.996094 205.386719 39.957031 205.386719 C 39.957031 142.449219 39.957031 79.511719 39.957031 16.574219 Z M 39.957031 16.574219 " fill-opacity="0.989" fill-rule="evenodd"/><path fill="#ff8a12" d="M 718.339844 162.777344 C 728.640625 162.777344 738.953125 162.777344 749.253906 162.777344 C 749.253906 156.929688 749.253906 151.082031 749.253906 145.234375 C 743.246094 145.503906 737.398438 145.226562 731.707031 144.398438 C 744.648438 131.039062 757.742188 117.8125 770.972656 104.714844 C 763.839844 96.605469 756.871094 88.390625 750.089844 80.070312 C 749.285156 74.015625 749.003906 67.886719 749.253906 61.691406 C 744.238281 61.691406 739.226562 61.691406 734.214844 61.691406 C 728.867188 55.453125 725.808594 48.214844 725.023438 39.96875 C 725.925781 30.933594 730.246094 23.96875 737.972656 19.082031 C 756.628906 40.804688 775.292969 62.523438 793.949219 84.246094 C 815.109375 62.523438 836.28125 40.804688 857.441406 19.082031 C 866.472656 26.800781 868.980469 36.269531 864.960938 47.488281 C 862.238281 52.660156 858.898438 57.394531 854.9375 61.691406 C 841.277344 76.324219 827.769531 91.082031 814.417969 105.96875 C 835.144531 129.902344 856.03125 153.710938 877.078125 177.398438 C 868.246094 188.886719 857.386719 191.394531 844.492188 184.917969 C 826.222656 165.253906 808.261719 145.34375 790.609375 125.183594 C 770.140625 146.210938 749.671875 167.234375 729.203125 188.257812 C 724.304688 187.277344 720.824219 184.355469 718.757812 179.488281 C 717.972656 176.71875 717.28125 173.933594 716.671875 171.132812 C 717.304688 168.359375 717.863281 165.574219 718.339844 162.777344 Z M 718.339844 162.777344 " fill-opacity="0.963" fill-rule="evenodd"/><path fill="#fefffe" d="M 243.808594 61.691406 C 263.578125 61.691406 283.351562 61.691406 303.125 61.691406 C 303.125 67.816406 303.125 73.941406 303.125 80.070312 C 290.871094 80.070312 278.617188 80.070312 266.363281 80.070312 C 266.363281 87.03125 266.363281 93.992188 266.363281 100.957031 C 277.503906 100.957031 288.644531 100.957031 299.78125 100.957031 C 299.78125 107.082031 299.78125 113.207031 299.78125 119.335938 C 288.644531 119.335938 277.503906 119.335938 266.363281 119.335938 C 266.363281 127.691406 266.363281 136.042969 266.363281 144.398438 C 278.617188 144.398438 290.871094 144.398438 303.125 144.398438 C 303.125 150.523438 303.125 156.652344 303.125 162.777344 C 283.351562 162.777344 263.578125 162.777344 243.808594 162.777344 C 243.808594 129.082031 243.808594 95.386719 243.808594 61.691406 Z M 243.808594 61.691406 " fill-opacity="0.958" fill-rule="evenodd"/><path fill="#fefffe" d="M 310.644531 61.691406 C 318.160156 61.691406 325.679688 61.691406 333.199219 61.691406 C 340.996094 87.582031 348.792969 113.480469 356.59375 139.386719 C 364.054688 113.375 371.855469 87.476562 379.984375 61.691406 C 387.503906 61.691406 395.023438 61.691406 402.542969 61.691406 C 391.402344 95.386719 380.261719 129.082031 369.125 162.777344 C 360.769531 162.777344 352.414062 162.777344 344.0625 162.777344 C 332.921875 129.082031 321.78125 95.386719 310.644531 61.691406 Z M 310.644531 61.691406 " fill-opacity="0.958" fill-rule="evenodd"/><path fill="#fefffe" d="M 415.074219 61.691406 C 434.566406 61.691406 454.0625 61.691406 473.554688 61.691406 C 473.554688 67.816406 473.554688 73.941406 473.554688 80.070312 C 461.300781 80.070312 449.050781 80.070312 436.796875 80.070312 C 436.796875 87.03125 436.796875 93.992188 436.796875 100.957031 C 448.214844 100.957031 459.632812 100.957031 471.050781 100.957031 C 471.050781 107.082031 471.050781 113.207031 471.050781 119.335938 C 459.632812 119.335938 448.214844 119.335938 436.796875 119.335938 C 436.796875 127.691406 436.796875 136.042969 436.796875 144.398438 C 449.050781 144.398438 461.300781 144.398438 473.554688 144.398438 C 473.554688 150.523438 473.554688 156.652344 473.554688 162.777344 C 454.0625 162.777344 434.566406 162.777344 415.074219 162.777344 C 415.074219 129.082031 415.074219 95.386719 415.074219 61.691406 Z M 415.074219 61.691406 " fill-opacity="0.973" fill-rule="evenodd"/><path fill="#fefffe" d="M 493.605469 61.691406 C 503.28125 61.421875 512.890625 61.699219 522.429688 62.523438 C 536.632812 87.03125 550.835938 111.539062 565.035156 136.042969 C 564.644531 111.296875 564.507812 86.507812 564.617188 61.691406 C 571.300781 61.691406 577.984375 61.691406 584.667969 61.691406 C 584.667969 95.386719 584.667969 129.082031 584.667969 162.777344 C 575.199219 162.917969 565.726562 162.777344 556.265625 162.359375 C 541.816406 137.785156 527.476562 113.136719 513.238281 88.421875 C 513.59375 113.191406 513.734375 137.976562 513.65625 162.777344 C 506.972656 162.777344 500.289062 162.777344 493.605469 162.777344 C 493.605469 129.082031 493.605469 95.386719 493.605469 61.691406 Z M 493.605469 61.691406 " fill-opacity="0.956" fill-rule="evenodd"/><path fill="#fefffe" d="M 598.871094 61.691406 C 624.769531 61.691406 650.671875 61.691406 676.570312 61.691406 C 676.570312 67.816406 676.570312 73.941406 676.570312 80.070312 C 667.378906 80.070312 658.1875 80.070312 649 80.070312 C 649 107.640625 649 135.207031 649 162.777344 C 641.480469 162.777344 633.960938 162.777344 626.441406 162.777344 C 626.441406 135.207031 626.441406 107.640625 626.441406 80.070312 C 617.253906 80.070312 608.0625 80.070312 598.871094 80.070312 C 598.871094 73.941406 598.871094 67.816406 598.871094 61.691406 Z M 598.871094 61.691406 " fill-opacity="0.957" fill-rule="evenodd"/><path fill="#fffefe" d="M 734.214844 61.691406 C 739.226562 61.691406 744.238281 61.691406 749.253906 61.691406 C 749.003906 67.886719 749.285156 74.015625 750.089844 80.070312 C 737.832031 80.070312 725.585938 80.070312 713.328125 80.070312 C 713.328125 87.03125 713.328125 93.992188 713.328125 100.957031 C 724.75 100.957031 736.160156 100.957031 747.582031 100.957031 C 747.582031 107.082031 747.582031 113.207031 747.582031 119.335938 C 736.160156 119.335938 724.75 119.335938 713.328125 119.335938 C 713.328125 127.691406 713.328125 136.042969 713.328125 144.398438 C 719.453125 144.398438 725.585938 144.398438 731.707031 144.398438 C 737.398438 145.226562 743.246094 145.503906 749.253906 145.234375 C 749.253906 151.082031 749.253906 156.929688 749.253906 162.777344 C 738.953125 162.777344 728.640625 162.777344 718.339844 162.777344 C 709.152344 162.777344 699.960938 162.777344 690.773438 162.777344 C 690.773438 129.082031 690.773438 95.386719 690.773438 61.691406 C 705.25 61.691406 719.738281 61.691406 734.214844 61.691406 Z M 734.214844 61.691406 " fill-opacity="0.963" fill-rule="evenodd"/><path fill="#020202" d="M 79.222656 148.574219 C 79.222656 144.121094 79.222656 139.664062 79.222656 135.207031 C 88.972656 135.207031 98.71875 135.207031 108.464844 135.207031 C 108.464844 129.082031 108.464844 122.957031 108.464844 116.828125 C 99.273438 116.828125 90.085938 116.828125 80.894531 116.828125 C 80.894531 112.375 80.894531 107.917969 80.894531 103.460938 C 90.085938 103.460938 99.273438 103.460938 108.464844 103.460938 C 108.738281 96.347656 108.460938 89.382812 107.628906 82.574219 C 98.3125 81.746094 88.84375 81.464844 79.222656 81.738281 C 79.222656 77.285156 79.222656 72.828125 79.222656 68.371094 C 96.210938 68.804688 112.5 68.246094 128.097656 66.703125 C 131.300781 66.980469 134.503906 67.257812 137.707031 67.539062 C 143.066406 76.867188 148.636719 86.054688 154.414062 95.105469 C 160.195312 86.054688 165.765625 76.867188 171.125 67.539062 C 177.230469 66.5625 183.359375 66.425781 189.503906 67.121094 C 181.148438 80.207031 172.792969 93.296875 164.441406 106.386719 C 173.1875 119.726562 182.097656 132.957031 191.175781 146.070312 C 184.769531 147.183594 178.363281 147.183594 171.957031 146.070312 C 165.832031 136.324219 159.707031 126.574219 153.578125 116.828125 C 147.289062 126.605469 141.160156 136.492188 135.199219 146.488281 C 116.59375 148.332031 97.9375 149.027344 79.222656 148.574219 Z M 79.222656 148.574219 " fill-opacity="1" fill-rule="evenodd"/><path fill="#202020" d="M 126.007812 77.5625 C 124.894531 96.222656 124.894531 114.878906 126.007812 133.539062 C 125.960938 133.992188 125.679688 134.269531 125.171875 134.375 C 124.058594 115.15625 124.058594 95.941406 125.171875 76.726562 C 125.679688 76.832031 125.960938 77.109375 126.007812 77.5625 Z M 126.007812 77.5625 " fill-opacity="1" fill-rule="evenodd"/><path fill="#fafafa" d="M 126.007812 77.5625 C 131.648438 86.972656 137.496094 96.304688 143.554688 105.550781 C 137.496094 114.796875 131.648438 124.125 126.007812 133.539062 C 124.894531 114.878906 124.894531 96.222656 126.007812 77.5625 Z M 126.007812 77.5625 " fill-opacity="1" fill-rule="evenodd"/><path fill="#414141" d="M 79.222656 68.371094 C 79.222656 72.828125 79.222656 77.285156 79.222656 81.738281 C 88.84375 81.464844 98.3125 81.746094 107.628906 82.574219 C 97.882812 82.574219 88.136719 82.574219 78.390625 82.574219 C 78.121094 77.679688 78.398438 72.945312 79.222656 68.371094 Z M 79.222656 68.371094 " fill-opacity="1" fill-rule="evenodd"/><path fill="#989898" d="M 107.628906 82.574219 C 108.460938 89.382812 108.738281 96.347656 108.464844 103.460938 C 99.273438 103.460938 90.085938 103.460938 80.894531 103.460938 C 89.65625 102.632812 98.566406 102.351562 107.628906 102.625 C 107.628906 95.941406 107.628906 89.257812 107.628906 82.574219 Z M 107.628906 82.574219 " fill-opacity="1" fill-rule="evenodd"/><path fill="#868686" d="M 80.894531 116.828125 C 90.085938 116.828125 99.273438 116.828125 108.464844 116.828125 C 108.464844 122.957031 108.464844 129.082031 108.464844 135.207031 C 98.71875 135.207031 88.972656 135.207031 79.222656 135.207031 C 79.222656 139.664062 79.222656 144.121094 79.222656 148.574219 C 78.398438 144 78.121094 139.265625 78.390625 134.375 C 88.136719 134.375 97.882812 134.375 107.628906 134.375 C 107.628906 128.804688 107.628906 123.234375 107.628906 117.664062 C 98.566406 117.9375 89.65625 117.660156 80.894531 116.828125 Z M 80.894531 116.828125 " fill-opacity="1" fill-rule="evenodd"/></svg>